#!OML:ASF F:\VICON\USERDATA\INSTALL\rory3\rory3.ASF
:FULLY-SPECIFIED
:DEGREES
662
root 0.0725997 17.9231 -0.782756 1.4221 -7.84498 3.06417
lowerback -0.180112 -1.7336 -5.30064
upperback -0.357965 -2.3114 2.50344
thorax 0.0456436 -1.15214 5.55779
lowerneck -24.1323 1.47181 -9.26629
upperneck 1.77485 3.97458 6.54287
head 3.95702 2.29351 3.93762
rclavicle 3.7123e-014 1.59028e-015
rhumerus -34.0563 -5.69256 -76.4127
rradius 34.2882
rwrist 19.2487
rhand -22.0132 5.8169
rfingers 7.12502
rthumb 4.39602 -24.1175
lclavicle 3.7123e-014 1.59028e-015
lhumerus 51.4539 4.05286 53.1067
lradius 96.6635
lwrist -4.90738
lhand -32.161 10.64
lfingers 7.12502
lthumb -5.40421 40.551
rfemur -7.80575 6.66377 12.7007
rtibia 27.3186
rfoot -17.9909 -2.85402
rtoes 3.46166
lfemur 0.783001 -2.34314 -23.9684
ltibia 12.8035
lfoot -10.7811 3.88371
ltoes -11.0039
663
root 0.0733715 17.9231 -0.785043 1.44976 -7.835 3.02926
lowerback -0.20041 -1.74935 -5.2707
upperback -0.390641 -2.33178 2.50774
thorax 0.0250697 -1.1609 5.54497
lowerneck -24.026 1.48361 -9.33562
upperneck 2.07029 3.98772 6.6429
head 4.03123 2.30111 3.98494
rclavicle -1.69215e-014 7.95139e-016
rhumerus -34.2255 -5.53978 -76.4288
rradius 34.402
rwrist 19.1887
rhand -22.0407 5.98
rfingers 7.12502
rthumb 4.3695 -23.9549
lclavicle -1.69215e-014 7.95139e-016
lhumerus 50.992 3.73728 53.1469
lradius 96.8589
lwrist -4.68343
lhand -31.8789 10.99
lfingers 7.12502
lthumb -5.13178 40.9079
rfemur -7.83558 6.64112 12.7277
rtibia 27.3198
rfoot -18.0032 -2.81984
rtoes 3.5978
lfemur 0.743186 -2.31596 -23.9256
ltibia 12.7928
lfoot -10.7476 3.80622
ltoes -10.9044
664
root 0.0745344 17.9215 -0.787613 1.43584 -7.8241 3.07562
lowerback -0.186333 -1.76495 -5.32645
upperback -0.413557 -2.35348 2.49406
thorax -0.00192802 -1.17025 5.56305
lowerneck -24.0031 1.50016 -9.48999
upperneck 2.42446 4.02809 6.8426
head 4.13027 2.3283 4.08349
rclavicle -3.49364e-014 -1.19271e-014
rhumerus -34.3919 -5.35296 -76.4433
rradius 34.5649
rwrist 19.1137
rhand -22.0379 6.02858
rfingers 7.12502
rthumb 4.37218 -23.9063
lclavicle -3.49364e-014 -1.19271e-014
lhumerus 50.5495 3.47626 53.2126
lradius 97.0326
lwrist -4.2189
lhand -31.517 10.7093
lfingers 7.12502
lthumb -4.78235 40.6354
rfemur -7.84088 6.58495 12.6689
rtibia 27.332
rfoot -17.964 -2.78268
rtoes 3.45524
lfemur 0.755959 -2.33158 -23.9781
ltibia 12.7515
lfoot -10.7185 3.77798
ltoes -10.9871
665
root 0.0752528 17.9216 -0.78804 1.43316 -7.82392 3.12509
lowerback -0.228961 -1.76563 -5.37203
upperback -0.4079 -2.35225 2.47116
thorax 0.028509 -1.17066 5.56344
lowerneck -23.797 1.50996 -9.68801
upperneck 2.46672 4.05976 7.06738
head 4.10432 2.3544 4.18643
rclavicle -2.45251e-014 1.03368e-014
rhumerus -34.4335 -5.25411 -76.4619
rradius 34.6501
rwrist 19.0593
rhand -22.1131 6.27038
rfingers 7.12502
rthumb 4.29953 -23.666
lclavicle -2.45251e-014 1.03368e-014
lhumerus 50.1545 3.18447 53.2578
lradius 97.1099
lwrist -3.99227
lhand -31.666 10.2809
lfingers 7.12502
lthumb -4.92619 40.2036
rfemur -7.84819 6.57541 12.6066
rtibia 27.3413
rfoot -17.9552 -2.761
rtoes 3.4969
lfemur 0.778808 -2.3684 -24.0396
ltibia 12.7116
lfoot -10.7256 3.81829
ltoes -11.3771
666
root 0.0760613 17.9225 -0.790726 1.46031 -7.80091 3.12922
lowerback -0.243855 -1.76628 -5.36446
upperback -0.387955 -2.35217 2.45438
thorax 0.0564475 -1.17202 5.54062
lowerneck -23.6741 1.48989 -9.89541
upperneck 2.49244 4.06087 7.30179
head 4.08723 2.36715 4.29295
rclavicle -1.61513e-015 7.95139e-016
rhumerus -34.1991 -5.31753 -76.4783
rradius 34.4492
rwrist 19.1103
rhand -22.0872 6.34472
rfingers 7.12502
rthumb 4.32455 -23.5911
lclavicle -1.61513e-015 7.95139e-016
lhumerus 49.8097 2.85524 53.2862
lradius 97.1421
lwrist -3.92825
lhand -31.8372 10.3263
lfingers 7.12502
lthumb -5.09155 40.2451
rfemur -7.88804 6.55012 12.5961
rtibia 27.347
rfoot -17.9715 -2.7689
rtoes 3.55844
lfemur 0.74053 -2.37557 -24.0419
ltibia 12.6981
lfoot -10.7383 3.83717
ltoes -11.1221
667
root 0.07617 17.9235 -0.79365 1.46255 -7.79861 3.10495
lowerback -0.223688 -1.74717 -5.33898
upperback -0.36963 -2.32741 2.43506
thorax 0.0588802 -1.16013 5.50655
lowerneck -23.6924 1.48262 -9.77315
upperneck 2.77872 4.02407 7.17154
head 4.18753 2.33788 4.23412
rclavicle 5.05907e-014 6.36111e-015
rhumerus -34.0595 -5.46628 -76.4995
rradius 34.3208
rwrist 19.1924
rhand -22.0328 6.1558
rfingers 7.12502
rthumb 4.37708 -23.779
lclavicle 5.05907e-014 6.36111e-015
lhumerus 49.4728 2.48635 53.3072
lradius 97.225
lwrist -3.89362
lhand -31.9319 10.5312
lfingers 7.12502
lthumb -5.18296 40.4479
rfemur -7.89274 6.54464 12.6186
rtibia 27.3301
rfoot -17.9504 -2.76159
rtoes 3.72584
lfemur 0.705997 -2.3423 -24.0133
ltibia 12.7381
lfoot -10.7419 3.81615
ltoes -10.9811
668
root 0.076952 17.9243 -0.798362 1.47769 -7.78013 3.07484
lowerback -0.206285 -1.74773 -5.31411
upperback -0.367985 -2.32897 2.43185
thorax 0.0499116 -1.16068 5.48958
lowerneck -23.5445 1.46446 -9.59066
upperneck 2.9608 3.9542 6.92942
head 4.23684 2.2844 4.12068
rclavicle 3.926e-015 4.77083e-015
rhumerus -34.0548 -5.44088 -76.5155
rradius 34.3241
rwrist 19.1861
rhand -22.161 6.4862
rfingers 7.12502
rthumb 4.25335 -23.4511
lclavicle 3.926e-015 4.77083e-015
lhumerus 49.0656 2.14456 53.3392
lradius 97.3884
lwrist -3.85385
lhand -32.1015 10.7432
lfingers 7.12502
lthumb -5.34674 40.6558
rfemur -7.90138 6.5286 12.6487
rtibia 27.3099
rfoot -17.9252 -2.78151
rtoes 3.65404
lfemur 0.662143 -2.39344 -23.9846
ltibia 12.7765
lfoot -10.7181 3.84527
ltoes -10.9888
669
root 0.0771216 17.9247 -0.803801 1.4803 -7.74871 3.07403
lowerback -0.183609 -1.76058 -5.32888
upperback -0.3336 -2.34687 2.42411
thorax 0.0753529 -1.17133 5.4897
lowerneck -23.6259 1.47026 -9.39845
upperneck 3.31773 3.92888 6.70188
head 4.3704 2.25433 4.02298
rclavicle 2.90723e-015 -1.27222e-014
rhumerus -33.9858 -5.49204 -76.5122
rradius 34.3052
rwrist 19.231
rhand -22.2392 7.11163
rfingers 7.12502
rthumb 4.17777 -22.8272
lclavicle 2.90723e-015 -1.27222e-014
lhumerus 48.6968 1.83359 53.3716
lradius 97.6189
lwrist -3.68256
lhand -32.121 11.0856
lfingers 7.12502
lthumb -5.36553 40.9977
rfemur -7.9113 6.54222 12.6552
rtibia 27.3075
rfoot -17.9321 -2.81178
rtoes 3.79351
lfemur 0.648561 -2.40364 -23.9823
ltibia 12.7625
lfoot -10.6987 3.83622
ltoes -11.2665
670
root 0.0773635 17.926 -0.804128 1.48545 -7.75231 3.11873
lowerback -0.239801 -1.76526 -5.39089
upperback -0.273889 -2.34971 2.40372
thorax 0.17053 -1.17728 5.50041
lowerneck -23.8617 1.49315 -9.24425
upperneck 3.74869 3.94394 6.52974
head 4.54511 2.248 3.95784
rclavicle -1.65488e-014 -1.19271e-014
rhumerus -33.8973 -5.48175 -76.5265
rradius 34.291
rwrist 19.1795
rhand -22.1889 7.2524
rfingers 7.12502
rthumb 4.22641 -22.6854
lclavicle -1.65488e-014 -1.19271e-014
lhumerus 48.3439 1.54 53.4684
lradius 97.8062
lwrist -3.63036
lhand -32.0229 11.4374
lfingers 7.12502
lthumb -5.2708 41.3518
rfemur -7.93397 6.50055 12.6016
rtibia 27.3137
rfoot -17.9073 -2.80218
rtoes 3.4276
lfemur 0.660571 -2.39432 -24.035
ltibia 12.7421
lfoot -10.7245 3.83293
ltoes -11.3345
671
root 0.07693 17.9262 -0.806716 1.45298 -7.73586 3.20766
lowerback -0.236545 -1.76032 -5.48926
upperback -0.213399 -2.34232 2.35358
thorax 0.231967 -1.17704 5.50285
lowerneck -23.4909 1.38129 -9.5991
upperneck 3.34613 3.83301 6.95829
head 4.36054 2.22116 4.12688
rclavicle -1.34428e-014 2.54444e-014
rhumerus -33.8444 -5.58987 -76.5363
rradius 34.3082
rwrist 19.2189
rhand -22.0807 7.25701
rfingers 7.12502
rthumb 4.33081 -22.6787
lclavicle -1.34428e-014 2.54444e-014
lhumerus 48.0332 1.25037 53.5752
lradius 97.8971
lwrist -3.51104
lhand -31.9003 11.2672
lfingers 7.12502
lthumb -5.1525 41.1845
rfemur -7.92739 6.48453 12.5066
rtibia 27.3293
rfoot -17.8967 -2.82022
rtoes 3.1495
lfemur 0.684963 -2.38039 -24.1268
ltibia 12.7145
lfoot -10.7169 3.78794
ltoes -11.309
672
root 0.0756213 17.9268 -0.810972 1.4368 -7.73806 3.21025
lowerback -0.216323 -1.74227 -5.51574
upperback -0.175706 -2.31872 2.33663
thorax 0.256666 -1.16697 5.50046
lowerneck -23.7506 1.40553 -9.15332
upperneck 4.042 3.8048 6.3719
head 4.6376 2.16415 3.88263
rclavicle -1.84373e-014 2.06736e-014
rhumerus -33.8498 -5.66645 -76.531
rradius 34.3168
rwrist 19.2929
rhand -22.0129 7.16051
rfingers 7.12502
rthumb 4.39631 -22.7739
lclavicle -1.84373e-014 2.06736e-014
lhumerus 47.6991 0.895591 53.6468
lradius 97.948
lwrist -3.19918
lhand -32.0258 11.066
lfingers 7.12502
lthumb -5.27363 40.9804
rfemur -7.92962 6.49194 12.5086
rtibia 27.3415
rfoot -17.9114 -2.78729
rtoes 3.26334
lfemur 0.697944 -2.41724 -24.1285
ltibia 12.676
lfoot -10.6847 3.83871
ltoes -11.377
673
root 0.0760046 17.9262 -0.813741 1.47652 -7.73169 3.14986
lowerback -0.263986 -1.75108 -5.45642
upperback -0.169675 -2.32812 2.33654
thorax 0.288569 -1.17281 5.46474
lowerneck -23.3229 1.37866 -9.22969
upperneck 3.81259 3.74991 6.46848
head 4.50451 2.14191 3.90728
rclavicle 2.1419e-014 -3.97569e-014
rhumerus -33.8908 -5.65945 -76.558
rradius 34.3292
rwrist 19.3431
rhand -21.997 7.01186
rfingers 7.12502
rthumb 4.4117 -22.9222
lclavicle 2.1419e-014 -3.97569e-014
lhumerus 47.3018 0.581473 53.6921
lradius 98.0047
lwrist -3.21071
lhand -32.0778 11.3374
lfingers 7.12502
lthumb -5.32389 41.2505
rfemur -7.97465 6.47468 12.5655
rtibia 27.3553
rfoot -17.888 -2.74488
rtoes 3.54713
lfemur 0.663172 -2.46439 -24.0562
ltibia 12.6424
lfoot -10.6685 3.84036
ltoes -11.02
674
root 0.0759416 17.9265 -0.81698 1.50834 -7.71936 3.09228
lowerback -0.305602 -1.75637 -5.4031
upperback -0.123787 -2.33275 2.33999
thorax 0.357955 -1.17848 5.43561
lowerneck -23.0708 1.32147 -9.48915
upperneck 3.62974 3.69951 6.77921
head 4.40509 2.13549 4.03557
rclavicle -6.60214e-014 3.10104e-014
rhumerus -33.8366 -5.72895 -76.5653
rradius 34.3277
rwrist 19.4027
rhand -22.0805 7.09211
rfingers 7.12502
rthumb 4.33108 -22.8436
lclavicle -6.60214e-014 3.10104e-014
lhumerus 46.9792 0.334115 53.8272
lradius 98.115
lwrist -3.48945
lhand -31.7438 11.8866
lfingers 7.12502
lthumb -5.00132 41.8076
rfemur -8.01327 6.4827 12.6301
rtibia 27.3491
rfoot -17.8831 -2.77124
rtoes 3.66546
lfemur 0.617547 -2.48612 -23.9852
ltibia 12.645
lfoot -10.6604 3.85823
ltoes -10.9859
675
root 0.0769248 17.9276 -0.81979 1.508 -7.72008 3.1257
lowerback -0.329107 -1.74729 -5.4165
upperback -0.0471478 -2.31841 2.30669
thorax 0.447487 -1.17603 5.4063
lowerneck -22.9778 1.24527 -9.84462
upperneck 3.51297 3.65288 7.19863
head 4.34665 2.13786 4.21959
rclavicle 1.27968e-014 1.59028e-015
rhumerus -33.7189 -5.75571 -76.6034
rradius 34.338
rwrist 19.3498
rhand -22.0883 7.1336
rfingers 7.12502
rthumb 4.32351 -22.8023
lclavicle 1.27968e-014 1.59028e-015
lhumerus 46.5564 0.0450504 54.0751
lradius 98.5168
lwrist -3.70953
lhand -31.3977 12.4577
lfingers 7.12502
lthumb -4.66715 42.3863
rfemur -8.03366 6.48055 12.5932
rtibia 27.3399
rfoot -17.8666 -2.81384
rtoes 3.36649
lfemur 0.603097 -2.44831 -24.0236
ltibia 12.6502
lfoot -10.6541 3.84197
ltoes -11.2121
